<svg width="32" height="32" viewBox="0 0 80 82" fill="none" xmlns="http://www.w3.org/2000/svg">
  <defs>
    <linearGradient id="kx-fav" x1="0" y1="0" x2="0" y2="1">
      <stop offset="0%" stop-color="#D4AF37"/>
      <stop offset="100%" stop-color="#B45309"/>
    </linearGradient>
  </defs>
  <path d="M40 5L72 23V59L40 77L8 59V23L40 5Z" fill="#04170D" stroke="url(#kx-fav)" stroke-width="2.5"/>
  <path d="M22 20V60" stroke="#186131" stroke-width="8" stroke-linecap="round"/>
  <path d="M50 20L24 40L50 60" stroke="#D4AF37" stroke-width="8" stroke-linecap="round" stroke-linejoin="round"/>
  <ellipse cx="60" cy="31" rx="2" ry="4" transform="rotate(-10 60 31)" fill="#F5DEB3"/>
  <g transform="translate(62,40) rotate(5)">
    <ellipse cx="0" cy="0" rx="2.5" ry="4" fill="#4B2C20"/>
  </g>
  <path d="M57 50C57 50 57 47 60 47C63 47 63 50 63 50C63 50 63 53 60 53C57 53 57 50 57 50Z" transform="rotate(10 60 50)" fill="#186131"/>
</svg>
